<svg width="18" height="12" viewBox="0 0 18 12" fill="none" xmlns="http://www.w3.org/2000/svg">
<path d="M8.99998 0C14.04 0 17.4 4.8 17.4 6C17.4 7.2 14.04 12 8.99998 12C3.95998 12 0.599976 7.2 0.599976 6C0.599976 4.8 3.95998 0 8.99998 0ZM8.99998 1.8C6.68038 1.8 4.79998 3.6804 4.79998 6C4.79998 8.3196 6.68038 10.2 8.99998 10.2C11.3196 10.2 13.2 8.3196 13.2 6C13.2 3.6804 11.3196 1.8 8.99998 1.8ZM8.99998 4.2C9.99409 4.2 10.8 5.00589 10.8 6C10.8 6.99411 9.99409 7.8 8.99998 7.8C8.00586 7.8 7.19998 6.99411 7.19998 6C7.19998 5.00589 8.00586 4.2 8.99998 4.2Z" fill="#99A2AD"/>
</svg>
