<svg width="83" height="42" viewBox="0 0 83 42" fill="none" xmlns="http://www.w3.org/2000/svg">
<rect width="83" height="42" rx="21" fill="#1B1A1A"/>
<circle cx="62" cy="21" r="17" fill="#383B3F" fill-opacity="0.24"/>
<path d="M61.5115 13C60.9214 13.5498 60.4481 14.2129 60.1199 14.9495C59.7916 15.6862 59.6151 16.4815 59.6009 17.2879C59.5866 18.0943 59.735 18.8953 60.0371 19.6431C60.3391 20.3909 60.7887 21.0702 61.3591 21.6405C61.9294 22.2108 62.6087 22.6604 63.3566 22.9624C64.1044 23.2645 64.9055 23.4128 65.7119 23.3986C66.5183 23.3844 67.3136 23.2079 68.0504 22.8796C68.7871 22.5514 69.4502 22.0781 70 21.4881C69.7453 25.68 66.2651 29 62.0088 29C57.5852 29 54 25.415 54 20.9924C54 16.7363 57.3201 13.2562 61.5115 13Z" fill="#0A55C6"/>
<path opacity="0.5" d="M21 26.4545C19.5534 26.4545 18.166 25.8799 17.1431 24.8569C16.1201 23.834 15.5455 22.4466 15.5455 21C15.5455 19.5534 16.1201 18.166 17.1431 17.1431C18.166 16.1201 19.5534 15.5455 21 15.5455C22.4466 15.5455 23.834 16.1201 24.8569 17.1431C25.8799 18.166 26.4545 19.5534 26.4545 21C26.4545 22.4466 25.8799 23.834 24.8569 24.8569C23.834 25.8799 22.4466 26.4545 21 26.4545ZM20.0909 11H21.9091V13.7273H20.0909V11ZM20.0909 28.2727H21.9091V31H20.0909V28.2727ZM13.2864 14.5718L14.5718 13.2864L16.5 15.2145L15.2145 16.5L13.2864 14.5727V14.5718ZM25.5 26.7855L26.7855 25.5L28.7136 27.4282L27.4282 28.7136L25.5 26.7855ZM27.4282 13.2855L28.7136 14.5718L26.7855 16.5L25.5 15.2145L27.4282 13.2864V13.2855ZM15.2145 25.5L16.5 26.7855L14.5718 28.7136L13.2864 27.4282L15.2145 25.5ZM31 20.0909V21.9091H28.2727V20.0909H31ZM13.7273 20.0909V21.9091H11V20.0909H13.7273Z" fill="#F2DB00"/>
</svg>
